<svg width="23" height="18" viewBox="0 0 23 18" fill="none" xmlns="http://www.w3.org/2000/svg">
<path fill-rule="evenodd" clip-rule="evenodd" d="M0 1.5C0 1.10218 0.173086 0.720645 0.481182 0.43934C0.789277 0.158036 1.20714 0 1.64286 0H21.3571C21.7929 0 22.2107 0.158036 22.5188 0.43934C22.8269 0.720645 23 1.10218 23 1.5C23 1.89782 22.8269 2.27936 22.5188 2.56066C22.2107 2.84196 21.7929 3 21.3571 3H1.64286C1.20714 3 0.789277 2.84196 0.481182 2.56066C0.173086 2.27936 0 1.89782 0 1.5ZM0 9C0 8.60218 0.173086 8.22064 0.481182 7.93934C0.789277 7.65804 1.20714 7.5 1.64286 7.5H21.3571C21.7929 7.5 22.2107 7.65804 22.5188 7.93934C22.8269 8.22064 23 8.60218 23 9C23 9.39782 22.8269 9.77936 22.5188 10.0607C22.2107 10.342 21.7929 10.5 21.3571 10.5H1.64286C1.20714 10.5 0.789277 10.342 0.481182 10.0607C0.173086 9.77936 0 9.39782 0 9ZM0 16.5C0 16.1022 0.173086 15.7206 0.481182 15.4393C0.789277 15.158 1.20714 15 1.64286 15H11.5C11.9357 15 12.3536 15.158 12.6617 15.4393C12.9698 15.7206 13.1429 16.1022 13.1429 16.5C13.1429 16.8978 12.9698 17.2794 12.6617 17.5607C12.3536 17.842 11.9357 18 11.5 18H1.64286C1.20714 18 0.789277 17.842 0.481182 17.5607C0.173086 17.2794 0 16.8978 0 16.5Z" fill="#252525"/>
</svg>
