<svg width="18" height="10" viewBox="0 0 18 10" fill="none" xmlns="http://www.w3.org/2000/svg">
<path fill-rule="evenodd" clip-rule="evenodd" d="M0.52638 0.507792C0.863523 0.195968 1.32073 0.0207945 1.79744 0.0207945C2.27416 0.0207945 2.73137 0.195968 3.06851 0.507792L8.98876 5.9851L14.909 0.507792C15.0749 0.348928 15.2732 0.222213 15.4926 0.13504C15.7119 0.0478668 15.9478 0.00198197 16.1865 6.2802e-05C16.4253 -0.00185636 16.662 0.0402281 16.8829 0.123861C17.1039 0.207494 17.3046 0.331001 17.4734 0.487175C17.6422 0.643348 17.7757 0.829061 17.8661 1.03348C17.9565 1.23789 18.002 1.45692 17.9999 1.67777C17.9979 1.89863 17.9483 2.11689 17.854 2.31982C17.7598 2.52275 17.6229 2.70629 17.4511 2.85972L10.2598 9.513C9.92268 9.82483 9.46548 10 8.98876 10C8.51204 10 8.05484 9.82483 7.7177 9.513L0.52638 2.85972C0.189339 2.54781 0 2.12481 0 1.68376C0 1.24271 0.189339 0.819711 0.52638 0.507792Z" fill="#252525"/>
</svg>
